<svg xmlns="http://www.w3.org/2000/svg" viewBox="0 0 64 64" role="img" aria-label="Leslie Liu favicon">
  <rect width="64" height="64" rx="16" fill="#f6f3ee"/>
  <g transform="translate(-2.5 1.5)">
    <path
      fill="#a83734"
      d="M26.5 11.5h12.3v2.7h-2.3c-.9 0-1.5.2-1.8.6-.2.3-.3 1-.3 1.9v20.8c0 .8.1 1.4.3 1.7.3.4.8.6 1.7.6h6.2c1.3 0 2.3-.2 3-.7.9-.6 1.9-2 2.9-4.3h2.5l-1.5 10.2H26.5v-2.7h2.3c.9 0 1.5-.2 1.8-.6.2-.3.3-.9.3-1.8V16.7c0-.9-.1-1.5-.3-1.8-.3-.4-.9-.6-1.8-.6h-2.3z"
    />
  </g>
</svg>
